<svg xmlns="http://www.w3.org/2000/svg" version="1.1" xmlns:xlink="http://www.w3.org/1999/xlink" xmlns:svgjs="http://svgjs.dev/svgjs" width="2000" height="1999" viewBox="0 0 2000 1999"><g transform="matrix(1,0,0,1,-0.431486880466764,-0.4312711370263287)"><svg viewBox="0 0 343 343" data-background-color="#ffffff" preserveAspectRatio="xMidYMid meet" height="1999" width="2000" xmlns="http://www.w3.org/2000/svg" xmlns:xlink="http://www.w3.org/1999/xlink"><g id="tight-bounds" transform="matrix(1,0,0,1,0.0740000000000407,0.07400000000001228)"><svg viewBox="0 0 342.85155851775386 342.85155851775386" height="342.85155851775386" width="342.85155851775386"><g><svg></svg></g><g><svg viewBox="0 0 342.85155851775386 342.85155851775386" height="342.85155851775386" width="342.85155851775386"><g><path d="M0 171.426c0-94.676 76.75-171.426 171.426-171.426 94.676 0 171.426 76.75 171.426 171.426 0 94.676-76.75 171.426-171.426 171.426-94.676 0-171.426-76.75-171.426-171.426zM171.426 339.874c93.031 0 168.448-75.417 168.448-168.448 0-93.031-75.417-168.448-168.448-168.448-93.031 0-168.448 75.417-168.448 168.448 0 93.031 75.417 168.448 168.448 168.448z" data-fill-palette-color="tertiary" fill="#000000" stroke="transparent"></path><ellipse rx="164.56874808852186" ry="164.56874808852186" cx="171.42577925887693" cy="171.42577925887693" fill="#000000" stroke="transparent" stroke-width="0" fill-opacity="1" data-fill-palette-color="tertiary"></ellipse></g><g transform="matrix(1,0,0,1,64.84655864529837,101.7075727024438)"><svg viewBox="0 0 213.1584412271571 139.43641311286626" height="139.43641311286626" width="213.1584412271571"><g><svg viewBox="0 0 213.1584412271571 139.43641311286626" height="139.43641311286626" width="213.1584412271571"><g><svg viewBox="0 0 213.1584412271571 139.43641311286626" height="139.43641311286626" width="213.1584412271571"><g transform="matrix(1,0,0,1,0,84.17130872725076)"><svg viewBox="0 0 213.1584412271571 55.2651043856155" height="55.2651043856155" width="213.1584412271571"><g id="textblocktransform"><svg viewBox="0 0 213.1584412271571 55.2651043856155" height="55.2651043856155" width="213.1584412271571" id="textblock"><g><svg viewBox="0 0 213.1584412271571 33.018750175071325" height="33.018750175071325" width="213.1584412271571"><g transform="matrix(1,0,0,1,0,0)"><svg width="213.1584412271571" viewBox="2 -35.3 233.03 36.099999999999994" height="33.018750175071325" data-palette-color="#ffffff"><path d="M31.65-0.4L32.35-0.4 32.35 0 27.2 0Q26 0 25.4-0.35 24.8-0.7 24.15-1.7L24.15-1.7 16.5-14.05Q15.8-15.2 15.33-15.48 14.85-15.75 13.65-15.75L13.65-15.75 9.95-15.75 9.95-0.8 14.3-0.4 14.3 0 2 0 2-0.4 6.1-0.8 6.1-33.7 2-34.1 2-34.5 14.65-34.5Q20.55-34.5 23.65-32.13 26.75-29.75 26.75-25.25L26.75-25.25Q26.75-21.75 24.85-19.5 22.95-17.25 19.35-16.4L19.35-16.4 19.4-16.4 28.55-2.1Q29.2-1.1 29.83-0.75 30.45-0.4 31.65-0.4L31.65-0.4ZM14.5-33.9L9.95-33.9 9.95-16.5 14.5-16.5Q18.5-16.5 20.43-18.63 22.35-20.75 22.35-25.15L22.35-25.15Q22.35-29.6 20.4-31.75 18.45-33.9 14.5-33.9L14.5-33.9ZM64.25-0.4L64.45-0.4 64.45 0 57 0 43.45-17.9 40.65-14.7 40.65-0.8 45-0.4 45 0 32.7 0 32.7-0.4 36.8-0.8 36.8-33.7 32.7-34.1 32.7-34.5 45-34.5 45-34.1 40.65-33.7 40.65-15.6 54.25-31.3Q55.05-32.25 55.05-32.85L55.05-32.85Q55.05-33.35 54.27-33.6 53.5-33.85 51.15-34.1L51.15-34.1 51.15-34.5 61.35-34.5 61.35-34.1Q58.45-33.6 57.42-33.15 56.4-32.7 55.25-31.4L55.25-31.4 46.1-20.9 60.55-2Q61.4-1.05 62.12-0.73 62.85-0.4 64.25-0.4L64.25-0.4ZM100.74-3.4Q99.29-1.8 97.17-0.85 95.04 0.1 92.79 0.1L92.79 0.1Q87.54 0.1 84.69-4.42 81.84-8.95 81.84-17.25L81.84-17.25Q81.84-25.6 84.69-30.15 87.54-34.7 92.84-34.7L92.84-34.7Q95.74-34.7 98.14-33.38 100.54-32.05 102.04-29.6L102.04-29.6Q103.54-27.1 104.24-23.25L104.24-23.25 104.94-23.45 104.44-34.7 103.79-34.7 102.59-32.3Q99.69-33.85 97.32-34.58 94.94-35.3 92.69-35.3L92.69-35.3Q88.39-35.3 84.79-32.9 81.19-30.5 79.12-26.35 77.04-22.2 77.04-17.25L77.04-17.25Q77.04-12.25 79.12-8.13 81.19-4 84.82-1.6 88.44 0.8 92.79 0.8L92.79 0.8Q95.24 0.8 97.87-0.15 100.49-1.1 102.74-2.75L102.74-2.75 104.44 0 105.09 0 105.09-11.5 104.44-11.6Q103.19-6.15 100.74-3.4L100.74-3.4ZM120.89-21.7Q121.89-21.7 122.59-21.03 123.29-20.35 123.29-19.4L123.29-19.4Q123.29-18.6 122.74-18.05 122.19-17.5 121.39-17.5L121.39-17.5Q120.89-17.5 120.57-17.73 120.24-17.95 119.89-18.4L119.89-18.4Q119.54-18.8 119.27-19 118.99-19.2 118.59-19.2L118.59-19.2Q117.79-19.2 116.97-18.25 116.14-17.3 115.79-16.05L115.79-16.05 115.79-0.8 119.79-0.4 119.79 0 109.49 0 109.49-0.4 112.54-0.8 112.54-18.3 109.59-19.4 109.59-19.75 115.24-21.7 115.64-21.7 115.64-17.3Q118.44-21.7 120.89-21.7L120.89-21.7ZM141.89-5.1L142.34-5.7 142.54-5.6 142.34-5.05Q141.34-2.4 139.36-0.95 137.39 0.5 134.64 0.5L134.64 0.5Q131.94 0.5 129.84-0.9 127.74-2.3 126.56-4.8 125.39-7.3 125.39-10.55L125.39-10.55Q125.39-13.8 126.64-16.35 127.89-18.9 130.19-20.3 132.49-21.7 135.44-21.7L135.44-21.7Q138.94-21.7 140.81-19.63 142.69-17.55 142.74-13.6L142.74-13.6 142.44-13.35 128.94-13.35Q128.84-12.05 128.84-11.3L128.84-11.3Q128.84-6.75 130.69-4.38 132.54-2 135.84-2L135.84-2Q137.54-2 139.11-2.78 140.69-3.55 141.89-5.1L141.89-5.1ZM134.89-21.15Q132.54-21.15 130.99-19.2 129.44-17.25 128.99-13.9L128.99-13.9 138.69-14.25Q138.84-14.85 138.84-16.25L138.84-16.25Q138.84-18.95 137.81-20.05 136.79-21.15 134.89-21.15L134.89-21.15ZM151.04 0.35Q149.14 0.35 147.91-0.98 146.69-2.3 146.69-4.4L146.69-4.4Q146.69-6.9 148.96-8.4 151.24-9.9 156.69-11L156.69-11 156.69-15.55Q156.69-18.45 156.04-19.58 155.39-20.7 153.79-20.7L153.79-20.7Q152.24-20.7 151.29-19.88 150.34-19.05 150.34-17.65L150.34-17.65 150.39-16.3Q150.39-15.05 149.91-14.33 149.44-13.6 148.59-13.6L148.59-13.6Q147.84-13.6 147.36-14.1 146.89-14.6 146.89-15.4L146.89-15.4Q146.89-16.6 148.06-18.03 149.24-19.45 151.09-20.4L151.09-20.4Q153.34-21.65 155.74-21.65L155.74-21.65Q157.14-21.65 158.11-21.1 159.09-20.55 159.54-19.55L159.54-19.55Q159.79-18.9 159.86-17.95 159.94-17 159.94-14.3L159.94-14.3 159.94-4.75Q159.94-2.95 160.29-2.27 160.64-1.6 161.54-1.6L161.54-1.6Q162.89-1.6 163.54-2.55L163.54-2.55 163.74-2.45Q163.14-1.2 162.14-0.53 161.14 0.15 159.99 0.15L159.99 0.15Q158.69 0.15 157.84-0.63 156.99-1.4 156.89-2.7L156.89-2.7 156.74-2.75Q155.59-1.3 154.09-0.48 152.59 0.35 151.04 0.35L151.04 0.35ZM153.19-1.55Q154.24-1.55 155.16-2.02 156.09-2.5 156.69-3.4L156.69-3.4 156.69-10.45Q154.09-9.8 152.66-9.15 151.24-8.5 150.64-7.6 150.04-6.7 150.04-5.35L150.04-5.35Q150.04-3.6 150.89-2.58 151.74-1.55 153.19-1.55L153.19-1.55ZM170.78-26L165.28-20.7 165.38-20.45 167.73-20.45 167.73-4.45Q167.73-2.9 168.08-1.95 168.43-1 169.28-0.4L169.28-0.4Q170.53 0.5 172.13 0.5L172.13 0.5Q173.68 0.5 175.06-0.4 176.43-1.3 177.18-2.85L177.18-2.85 176.98-3Q176.08-2.1 175.33-1.7 174.58-1.3 173.78-1.3L173.78-1.3Q172.13-1.3 171.53-2.5L171.53-2.5Q170.98-3.35 170.98-5.1L170.98-5.1 170.98-20.4 176.38-20.4 176.68-21.2 170.98-21.2 170.98-25.95 170.78-26ZM180.73-28.9Q180.73-29.95 181.41-30.63 182.08-31.3 183.13-31.3L183.13-31.3Q184.18-31.3 184.86-30.63 185.53-29.95 185.53-28.9L185.53-28.9Q185.53-27.85 184.86-27.18 184.18-26.5 183.13-26.5L183.13-26.5Q182.08-26.5 181.41-27.18 180.73-27.85 180.73-28.9L180.73-28.9ZM185.03-0.8L185.03-21.7 184.63-21.7 178.83-19.75 178.83-19.4 181.78-18.3 181.78-0.8 178.73-0.4 178.73 0 188.08 0 188.08-0.4 185.03-0.8ZM200.83-21.7Q203.73-21.7 205.98-20.3 208.23-18.9 209.48-16.38 210.73-13.85 210.73-10.6L210.73-10.6Q210.73-7.35 209.48-4.83 208.23-2.3 205.98-0.9 203.73 0.5 200.83 0.5L200.83 0.5Q197.93 0.5 195.68-0.9 193.43-2.3 192.18-4.83 190.93-7.35 190.93-10.6L190.93-10.6Q190.93-13.85 192.18-16.38 193.43-18.9 195.68-20.3 197.93-21.7 200.83-21.7L200.83-21.7ZM194.63-10.6Q194.63-5.6 196.28-2.8 197.93 0 200.83 0L200.83 0Q203.73 0 205.38-2.8 207.03-5.6 207.03-10.6L207.03-10.6Q207.03-15.6 205.38-18.4 203.73-21.2 200.83-21.2L200.83-21.2Q197.93-21.2 196.28-18.4 194.63-15.6 194.63-10.6L194.63-10.6ZM232.03-0.8L235.03-0.4 235.03 0 225.73 0 225.73-0.4 228.78-0.8 228.78-13.55Q228.78-15.5 228.68-16.45 228.58-17.4 228.28-18.05L228.28-18.05Q227.88-18.9 226.95-19.38 226.03-19.85 224.83-19.85L224.83-19.85Q222.28-19.85 220.28-17.7L220.28-17.7 220.28-0.8 223.33-0.4 223.33 0 213.98 0 213.98-0.4 217.03-0.8 217.03-18.05 214.08-19.15 214.08-19.5 219.73-21.45 220.13-21.45 220.13-18.3Q223.33-21.7 226.83-21.7L226.83-21.7Q228.38-21.7 229.65-21.03 230.93-20.35 231.48-19.25L231.48-19.25Q231.83-18.6 231.93-17.48 232.03-16.35 232.03-13.55L232.03-13.55 232.03-0.8Z" opacity="1" transform="matrix(1,0,0,1,0,0)" fill="#ffffff" class="wordmark-text-0" data-fill-palette-color="quaternary" id="text-0"></path></svg></g></svg></g><g transform="matrix(1,0,0,1,0,40.813684641401466)"><svg viewBox="0 0 213.1584412271571 14.451419744214041" height="14.451419744214041" width="213.1584412271571"><g transform="matrix(1,0,0,1,0,0)"><svg width="213.1584412271571" viewBox="6.25 -50 737.46 50" height="14.451419744214041" data-palette-color="#ffffff"><path d="M31.25-6.25L18.75-6.25 18.75-31.25 6.25-31.25 6.25-37.5 18.75-37.5 18.75-43.75 25-43.75 25-50 43.75-50 43.75-43.75 31.25-43.75 31.25-37.5 43.75-37.5 43.75-31.25 31.25-31.25 31.25-6.25ZM68.75-37.5L68.75-31.25 75-31.25 75-25 68.75-25 68.75-6.25 56.25-6.25 56.25-37.5 68.75-37.5ZM75-37.5L93.75-37.5 93.75-31.25 75-31.25 75-37.5ZM137.5-6.25L106.25-6.25 106.25-12.5 100-12.5 100-31.25 106.25-31.25 106.25-37.5 137.5-37.5 137.5-31.25 143.75-31.25 143.75-12.5 137.5-12.5 137.5-6.25ZM112.5-31.25L112.5-12.5 131.25-12.5 131.25-31.25 112.5-31.25ZM162.49-6.25L149.99-6.25 149.99-37.5 187.49-37.5 187.49-31.25 193.74-31.25 193.74-6.25 181.24-6.25 181.24-31.25 162.49-31.25 162.49-6.25ZM231.24-6.25L218.74-6.25 218.74-31.25 206.24-31.25 206.24-37.5 218.74-37.5 218.74-50 231.24-50 231.24-37.5 243.74-37.5 243.74-31.25 231.24-31.25 231.24-6.25ZM287.49-6.25L256.24-6.25 256.24-12.5 249.99-12.5 249.99-31.25 256.24-31.25 256.24-37.5 287.49-37.5 287.49-31.25 293.74-31.25 293.74-18.75 262.49-18.75 262.49-12.5 287.49-12.5 287.49-6.25ZM262.49-31.25L262.49-25 281.24-25 281.24-31.25 262.49-31.25ZM312.49-6.25L299.99-6.25 299.99-37.5 337.49-37.5 337.49-31.25 343.74-31.25 343.74-6.25 331.24-6.25 331.24-31.25 312.49-31.25 312.49-6.25ZM393.73-6.25L356.23-6.25 356.23-12.5 349.98-12.5 349.98-31.25 356.23-31.25 356.23-37.5 381.23-37.5 381.23-50 393.73-50 393.73-6.25ZM362.48-31.25L362.48-12.5 381.23-12.5 381.23-31.25 362.48-31.25ZM493.73-6.25L456.23-6.25 456.23-12.5 449.98-12.5 449.98-31.25 456.23-31.25 456.23-37.5 481.23-37.5 481.23-50 493.73-50 493.73-6.25ZM462.48-31.25L462.48-12.5 481.23-12.5 481.23-31.25 462.48-31.25ZM537.48-6.25L506.23-6.25 506.23-12.5 499.98-12.5 499.98-31.25 506.23-31.25 506.23-37.5 537.48-37.5 537.48-31.25 543.73-31.25 543.73-18.75 512.48-18.75 512.48-12.5 537.48-12.5 537.48-6.25ZM512.48-31.25L512.48-25 531.23-25 531.23-31.25 512.48-31.25ZM587.47-6.25L549.97-6.25 549.97-12.5 581.22-12.5 581.22-18.75 556.22-18.75 556.22-25 549.97-25 549.97-31.25 556.22-31.25 556.22-37.5 587.47-37.5 587.47-31.25 562.47-31.25 562.47-25 587.47-25 587.47-18.75 593.72-18.75 593.72-12.5 587.47-12.5 587.47-6.25ZM631.22-43.75L618.72-43.75 618.72-50 631.22-50 631.22-43.75ZM643.72-6.25L606.22-6.25 606.22-12.5 618.72-12.5 618.72-31.25 612.47-31.25 612.47-37.5 631.22-37.5 631.22-12.5 643.72-12.5 643.72-6.25ZM687.47 0L656.22 0 656.22-6.25 681.22-6.25 681.22-12.5 656.22-12.5 656.22-18.75 649.97-18.75 649.97-31.25 656.22-31.25 656.22-37.5 693.72-37.5 693.72-6.25 687.47-6.25 687.47 0ZM662.47-31.25L662.47-18.75 681.22-18.75 681.22-31.25 662.47-31.25ZM712.46-6.25L699.96-6.25 699.96-37.5 737.46-37.5 737.46-31.25 743.71-31.25 743.71-6.25 731.21-6.25 731.21-31.25 712.46-31.25 712.46-6.25Z" opacity="1" transform="matrix(1,0,0,1,0,0)" fill="#ffffff" class="slogan-text-1" data-fill-palette-color="quaternary" id="text-1"></path></svg></g></svg></g></svg></g></svg></g><g transform="matrix(1,0,0,1,78.00210001752235,0)"><svg viewBox="0 0 57.15424119211241 76.37637426092063" height="76.37637426092063" width="57.15424119211241"><g><svg xmlns="http://www.w3.org/2000/svg" xmlns:xlink="http://www.w3.org/1999/xlink" version="1.0" x="0" y="0" viewBox="3.184 0.21899999999999997 17.631999999999998 23.561999999999998" enable-background="new 0 0 24 24" xml:space="preserve" height="76.37637426092063" width="57.15424119211241" class="icon-icon-0" data-fill-palette-color="quaternary" id="icon-0"><g fill="#ffffff" data-fill-palette-color="quaternary"><path d="M20.165 23.781H3.835c-0.359 0-0.651-0.291-0.651-0.651V0.87c0-0.36 0.291-0.651 0.651-0.651h16.33c0.359 0 0.651 0.291 0.651 0.651V23.13C20.815 23.49 20.524 23.781 20.165 23.781zM4.486 22.479h15.029V1.521H4.486V22.479z" fill="#ffffff" data-fill-palette-color="quaternary"></path><path d="M16.548 17.114H7.451c-0.359 0-0.651-0.291-0.651-0.651 0-0.36 0.291-0.651 0.651-0.651h9.097c0.359 0 0.651 0.291 0.651 0.651C17.199 16.823 16.908 17.114 16.548 17.114z" fill="#ffffff" data-fill-palette-color="quaternary"></path><path d="M16.548 20.368H7.451c-0.359 0-0.651-0.291-0.651-0.651 0-0.36 0.291-0.651 0.651-0.651h9.097c0.359 0 0.651 0.291 0.651 0.651C17.199 20.076 16.908 20.368 16.548 20.368z" fill="#ffffff" data-fill-palette-color="quaternary"></path><path d="M12 13.986c-3.073 0-5.573-2.501-5.573-5.573S8.927 2.84 12 2.84c3.073 0 5.572 2.5 5.572 5.572S15.073 13.986 12 13.986zM12 4.143c-2.356 0-4.272 1.915-4.272 4.27S9.644 12.684 12 12.684c2.355 0 4.271-1.916 4.271-4.271S14.355 4.143 12 4.143z" fill="#ffffff" data-fill-palette-color="quaternary"></path></g></svg></g></svg></g><g></g></svg></g></svg></g></svg></g></svg></g><defs></defs></svg><rect width="342.85155851775386" height="342.85155851775386" fill="none" stroke="none" visibility="hidden"></rect></g></svg></g></svg>